PathFileType	4	(X/Y/Z)	Patient4_TMGait_0pt7_01_left_16.trc.trc
DataRate	CameraRate	NumFrames	NumMarkers	Units	OrigDataRate	OrigDataStartFrame	OrigNumFrames
85.889570552147	85.889570552147	4	33	mm	85.889570552147	18	       141
Frame#	Time	Sacral			L.Shoulder			Chest			R.Shoulder			Neck			R.ASIS			L.ASIS			R.Thigh.Superior			R.Thigh.Lateral			R.Thigh.Inferior			R.Patella			L.Thigh.Superior			L.Thigh.Lateral			L.Thigh.Inferior			L.Patella			L.Shank.Superior			L.Shank.Lateral			L.Shank.Inferior			R.Shank.Superior			R.Shank.Lateral			R.Shank.Inferior			R.Heel			R.Midfoot.Superior			R.Midfoot.Lateral			R.Toe			L.Heel			L.Midfoot.Lateral			L.Midfoot.Superior			L.Toe			L.Elbow			L.Wrist			R.Elbow			R.Wrist			
		X1	Y1	Z1	X2	Y2	Z2	X3	Y3	Z3	X4	Y4	Z4	X5	Y5	Z5	X6	Y6	Z6	X7	Y7	Z7	X8	Y8	Z8	X9	Y9	Z9	X10	Y10	Z10	X11	Y11	Z11	X12	Y12	Z12	X13	Y13	Z13	X14	Y14	Z14	X15	Y15	Z15	X16	Y16	Z16	X17	Y17	Z17	X18	Y18	Z18	X19	Y19	Z19	X20	Y20	Z20	X21	Y21	Z21	X22	Y22	Z22	X23	Y23	Z23	X24	Y24	Z24	X25	Y25	Z25	X26	Y26	Z26	X27	Y27	Z27	X28	Y28	Z28	X29	Y29	Z29	X30	Y30	Z30	X31	Y31	Z31	X32	Y32	Z32	X33	Y33	Z33	

18	18.507928571429	829.225360708569	1005.235965628100	531.500702456030	997.896595684154	1429.390891445215	337.093309804366	1118.318439070581	1351.348843713255	481.242346577033	1064.918619133459	1427.240244644089	665.546853342700	1026.340404219714	1487.830847812414	492.706069180182	1061.778635893241	939.722401860436	631.928526993175	1028.229109481690	954.222292517410	356.317564183973	1060.814319405597	728.642318388348	606.303698028534	958.753810162558	634.268253781837	669.936323627223	1018.553889873740	569.657482796979	589.153706797315	1001.634252659530	485.863039029334	594.168323849112	1110.524738577183	782.970943417509	385.490019672825	1075.813824115947	655.226370433414	297.210255085057	1181.768669136118	600.941584914889	360.404472235513	1215.448828717968	539.175357814222	353.571332480514	1202.650870269704	466.249257647214	340.618797656317	1145.760958172069	335.103487287382	281.173758352509	1237.043331755923	238.518280518568	334.398682252835	967.755040210432	400.859538469331	601.066159143194	888.923452614038	301.948273900948	662.292686375199	924.790935674871	205.189479005063	597.446639367916	782.139406015586	43.072162691643	563.879596729968	953.240948076195	96.743242531825	601.815799345264	864.495821296371	36.683492800080	639.265366751098	1072.899371589244	44.028549373217	630.563095385095	1163.427354928348	52.564341262130	361.546688600350	1242.130225556268	62.724427743569	286.424514225199	1306.251190169091	144.790934208142	312.057913505608	1443.420680632483	124.003478328035	294.241334014323	838.651072374629	1114.685030953683	244.803819562645	783.624082937895	862.193151576198	245.495355305557	1202.391802765364	1111.289084695754	763.647697791023	1429.960959985388	1156.378670510031	658.629490649055	
19	18.519571428571	829.820501669675	1003.853172425724	529.383434126805	997.645582120395	1428.266485041262	335.229597250507	1118.012694304594	1350.528014389905	479.518391962914	1064.063495185904	1426.401755325243	663.582417664272	1025.553899920790	1486.665465308399	490.900561539553	1062.222809575331	938.362770457957	630.077696835068	1029.065635098052	952.667136316542	354.459151960750	1059.961793961656	726.912533640296	604.332778139781	957.439204729027	633.191590014554	668.452200743281	1016.231928886250	568.106507035595	587.314838089426	998.508378513704	484.141271764837	592.388741049576	1110.298897315573	779.903873396541	384.380867232511	1074.021081920771	652.013998193314	296.933488548819	1179.346293180953	597.172156674820	360.251532785371	1212.237529605777	535.492088900775	353.755875492181	1199.720692641262	462.841523327958	340.939741999719	1143.020291041655	330.906944459136	283.577009004556	1235.661804475066	235.484380714253	336.555137594671	963.751659283751	399.325459589130	599.634206937387	884.057976526655	301.456537569517	661.520621708371	918.131587766207	204.232012818970	596.620404018755	773.918389303871	42.926423460036	563.867691356594	944.972651591400	96.646733867818	601.664957092755	856.229440074494	36.662111791252	639.360640260394	1064.612934283061	43.977730195253	630.556851993552	1163.699654038981	49.726196789135	366.277403516854	1241.322526732572	59.524684484519	290.113332878212	1305.573183827077	141.694347738613	314.353935083557	1442.423192107998	120.985504376220	294.999867673610	835.173217149986	1116.086707210105	242.671771538246	775.891325878025	864.555674058869	244.839578831661	1207.513448426713	1113.849220109156	759.399254052226	1429.062297299397	1175.531150112787	651.673407656200	
20	18.531214285714	830.572655887942	1002.323397009966	527.038997769033	997.387658375356	1427.059009197424	333.199602289617	1117.726235764662	1349.690701414725	477.649366599456	1063.142574536013	1425.513593524850	661.457057336413	1024.716732718658	1485.425730388575	488.924955572075	1062.847156178473	936.897051673461	628.041813878287	1030.145818586560	951.029335467402	352.431451993719	1059.494028720774	725.108557400691	602.237361337060	956.568208173627	631.958137378062	666.812336150625	1014.470351732476	566.417854229208	585.381761630890	995.906071519144	482.217019036830	590.493049705115	1110.488878998241	776.904348640942	383.079720783159	1072.494256477901	648.703485866248	296.930962321484	1177.398126717622	593.516896462192	360.106465639953	1209.278868323014	531.489073981105	354.068170780592	1196.631524859196	458.934248748395	341.459230217093	1139.128523896507	326.644451640069	286.330814571450	1232.422071243404	231.774181532898	339.043011294255	960.198698373215	397.611028726463	598.100662097989	879.515257231601	300.906924704167	660.639697555103	911.649877085252	203.171194179796	595.749084682857	765.720506404410	42.786746665129	563.846804456072	936.747562097855	96.540516071837	601.479447201646	847.990446244140	36.623870482340	639.426739945460	1056.354558954726	43.858726180066	630.558783595029	1160.721439535736	47.043307145933	371.452363832862	1237.085357526788	56.014757908707	294.031027221954	1302.236921586386	137.522740409576	316.936367310491	1438.450063560828	115.690061476730	295.572280441892	832.056921458930	1117.211307518520	240.510120432736	769.400450087261	866.440442846524	244.053558689590	1212.245666272841	1116.348872306783	755.180631792607	1426.878224994095	1193.393245421455	645.062289347347	
21	18.542857142857	831.462205616109	1000.667832714032	524.485550655636	997.133391161046	1425.775131529972	330.995301338657	1117.467027347704	1348.843820883852	475.631967031279	1062.169153556606	1424.587217551484	659.171224105035	1023.843544668924	1484.128525706373	486.768467352050	1063.636068095369	935.340363217279	625.846757205019	1031.456604960014	949.342318476099	350.257480247006	1059.400299356486	723.237755397396	600.073051833728	956.084883505492	630.580299404096	665.018087584874	1013.243200970634	564.594278013343	583.385876524515	993.802163249647	480.087915603123	588.489415167374	1111.087583501964	773.985803250508	381.578212910131	1071.200612293626	645.347971217909	297.143187432599	1175.898676941230	590.000710280360	359.964369304644	1206.561069435490	527.263513281357	354.553260390719	1193.474894888734	454.664837001432	342.166553551870	1134.437230500183	322.398846666020	289.188274892319	1227.707278132404	227.527297522081	341.716304477207	957.056656618176	395.739359524584	596.469934736257	875.262043893164	300.316380126761	659.644727726215	905.331746645362	202.032088321322	594.834448054886	757.544164383241	42.673837982516	563.820573175744	928.569757458538	96.424611021725	601.251346738307	839.782928526883	36.575193749829	639.455436771547	1048.136581244760	43.660960485161	630.573414707939	1154.993471637705	44.549448309843	376.644593459366	1230.071960105058	52.327967724941	297.901774201140	1296.775528829522	132.464166945303	319.707344194286	1432.119074079077	108.427306302962	296.122353018194	829.350960111001	1118.003701503593	238.325603783673	764.119748663052	867.801124993387	243.103278943662	1216.559052132883	1118.732328552056	751.046852251960	1423.591679556301	1209.834473807825	638.807423493952	
